<?xml version="1.0" encoding="utf-8"?>
<!-- Generator: Adobe Illustrator 27.5.0, SVG Export Plug-In . SVG Version: 6.00 Build 0)  -->
<svg version="1.1" xmlns="http://www.w3.org/2000/svg" xmlns:xlink="http://www.w3.org/1999/xlink" x="0px" y="0px"
	 viewBox="0 0 1122 1122" style="enable-background:new 0 0 1122 1122;" xml:space="preserve">
<g id="BG">
	<rect style="fill:#DE5D5D;" width="1122" height="1122"/>
</g>
<g id="Alphabet_1_">
	<g>
		<linearGradient id="SVGID_1_" gradientUnits="userSpaceOnUse" x1="342.6557" y1="501.2512" x2="872.3092" y2="501.2512">
			<stop  offset="0" style="stop-color:#91C5C8"/>
			<stop  offset="1" style="stop-color:#787FAF"/>
		</linearGradient>
		<path style="fill:url(#SVGID_1_);" d="M778.596,305.43l-90.581,77.613c-13.815-16.092-30.906-28.582-51.26-37.467
			c-20.37-8.873-43.027-13.322-68.007-13.322c-26.098,0-51.541,4.995-76.325,14.961c-24.797,9.966-47.292,23.404-67.469,40.291
			c-20.191,16.886-37.302,36.83-51.347,59.818c-14.045,22.988-23.363,47.499-27.951,73.517c-4.59,26.032-3.915,50.542,2.023,73.53
			c5.938,22.988,15.993,43.063,30.178,60.234c14.171,17.173,31.904,30.743,53.187,40.708c1.292,0.605,2.593,1.19,3.902,1.759
			c-3.148-7.425-5.811-15.193-7.919-23.353c-5.938-22.988-6.613-47.498-2.022-73.53c4.588-26.019,13.906-50.529,27.951-73.517
			c14.045-22.988,31.156-42.932,51.347-59.818c20.176-16.887,42.672-30.325,67.468-40.291c24.784-9.966,50.227-14.961,76.325-14.961
			c24.979,0,47.638,4.449,68.007,13.322c20.355,8.885,37.446,21.375,51.26,37.467l104.946-89.922
			c-23.516-27.19-52.504-48.565-86.944-64.112C783.126,307.347,780.868,306.374,778.596,305.43z"/>
		
			<linearGradient id="SVGID_00000054956468315724728240000007817475331877367471_" gradientUnits="userSpaceOnUse" x1="688.0157" y1="377.7556" x2="872.3094" y2="377.7556">
			<stop  offset="0" style="stop-color:#A9CACE"/>
			<stop  offset="0.0749" style="stop-color:#B4CCD0"/>
			<stop  offset="0.2883" style="stop-color:#CDD0D5"/>
			<stop  offset="0.5093" style="stop-color:#E0D3D9"/>
			<stop  offset="0.741" style="stop-color:#EAD4DB"/>
			<stop  offset="1" style="stop-color:#EED5DC"/>
		</linearGradient>
		<polygon style="fill:url(#SVGID_00000054956468315724728240000007817475331877367471_);" points="688.016,383.043 767.364,462.39 
			872.309,372.469 792.961,293.121 		"/>
		
			<linearGradient id="SVGID_00000051348654109888120830000011572575488698181286_" gradientUnits="userSpaceOnUse" x1="515.0634" y1="672.9618" x2="745.7016" y2="672.9618">
			<stop  offset="0" style="stop-color:#91C5C8"/>
			<stop  offset="1" style="stop-color:#9BBCE3"/>
		</linearGradient>
		<polygon style="fill:url(#SVGID_00000051348654109888120830000011572575488698181286_);" points="515.063,633.752 
			594.656,712.172 745.702,712.172 666.843,633.934 		"/>
		<path style="fill:#FFFFFF;" d="M591.848,205.695c42.178,0,80.498,7.781,114.954,23.313c34.44,15.547,63.429,36.922,86.944,64.112
			L688.8,383.043c-13.815-16.092-30.906-28.582-51.261-37.467c-20.37-8.873-43.028-13.322-68.007-13.322
			c-26.098,0-51.541,4.995-76.325,14.961c-24.797,9.966-47.293,23.404-67.469,40.291c-20.19,16.886-37.301,36.83-51.346,59.818
			c-14.045,22.988-23.363,47.498-27.951,73.517c-4.59,26.032-3.916,50.542,2.023,73.53c5.938,22.988,15.993,43.063,30.178,60.234
			c14.171,17.173,31.904,30.743,53.187,40.708c21.27,9.964,44.953,14.948,71.051,14.948c31.08,0,60.848-6.727,89.318-20.178
			c28.455-13.452,53.596-31.705,75.431-54.757H516.093l22.315-126.558h62.446h126.557h125.724c-0.392,2.225-0.628,4.307-0.683,6.245
			c-0.073,1.951-0.295,4.033-0.685,6.244c-7.634,43.296-23.155,84.095-46.56,122.395c-23.407,38.3-51.927,71.748-85.551,100.33
			c-33.636,28.595-71.06,51.206-112.296,67.859s-83.502,24.978-126.798,24.978c-43.296,0-82.626-8.326-117.991-24.978
			c-35.364-16.652-64.825-39.263-88.365-67.859c-23.555-28.582-40.267-62.03-50.167-100.33c-9.898-38.3-11.031-79.099-3.396-122.395
			c7.634-43.296,23.155-84.094,46.559-122.394c23.407-38.301,51.912-71.735,85.55-100.331
			c33.622-28.582,71.059-51.206,112.296-67.858C506.286,214.022,548.552,205.695,591.848,205.695z"/>
		<g>
			
				<linearGradient id="SVGID_00000152984758554129741120000009175227584543132327_" gradientUnits="userSpaceOnUse" x1="852.3515" y1="508.7681" x2="852.3515" y2="508.7681">
				<stop  offset="0" style="stop-color:#A9CACE"/>
				<stop  offset="0.0749" style="stop-color:#B4CCD0"/>
				<stop  offset="0.2883" style="stop-color:#CDD0D5"/>
				<stop  offset="0.5093" style="stop-color:#E0D3D9"/>
				<stop  offset="0.741" style="stop-color:#EAD4DB"/>
				<stop  offset="1" style="stop-color:#EED5DC"/>
			</linearGradient>
			<polygon style="fill:url(#SVGID_00000152984758554129741120000009175227584543132327_);" points="852.352,508.768 
				852.352,508.768 852.352,508.768 			"/>
			
				<linearGradient id="SVGID_00000067930716546881838780000012655247528056598175_" gradientUnits="userSpaceOnUse" x1="294.0393" y1="712.4676" x2="931.688" y2="712.4676">
				<stop  offset="0" style="stop-color:#A9CACE"/>
				<stop  offset="0.0749" style="stop-color:#B4CCD0"/>
				<stop  offset="0.2883" style="stop-color:#CDD0D5"/>
				<stop  offset="0.5093" style="stop-color:#E0D3D9"/>
				<stop  offset="0.741" style="stop-color:#EAD4DB"/>
				<stop  offset="1" style="stop-color:#EED5DC"/>
			</linearGradient>
			<path style="fill:url(#SVGID_00000067930716546881838780000012655247528056598175_);" d="M852.352,508.768
				c-0.392,2.225-0.628,4.307-0.683,6.245c-0.073,1.951-0.295,4.033-0.685,6.244c-7.634,43.296-23.155,84.095-46.559,122.395
				c-23.407,38.3-51.927,71.748-85.551,100.33c-33.636,28.595-71.059,51.206-112.296,67.859
				c-41.236,16.652-83.502,24.978-126.798,24.978c-43.296,0-82.626-8.326-117.991-24.978c-25.711-12.107-48.286-27.38-67.749-45.797
				l70.521,70.554c2.682,2.813,3.543,5.564,6.357,8.245l2.073,3.958v-0.253c20.009,17.017,42.028,31.229,66.263,42.641
				c35.365,16.652,75.636,24.978,118.932,24.978c43.296,0,86.033-8.326,127.269-24.978c41.237-16.653,78.895-39.263,112.531-67.858
				c33.624-28.582,62.262-62.031,85.669-100.33c23.404-38.3,38.984-79.099,46.618-122.395c0.39-2.211,0.642-4.292,0.715-6.244
				c0.055-1.938,0.308-4.02,0.701-6.245L852.352,508.768z"/>
			
				<linearGradient id="SVGID_00000041975126209795070860000007543989211424166272_" gradientUnits="userSpaceOnUse" x1="280.3666" y1="754.2676" x2="284.522" y2="754.2676">
				<stop  offset="0" style="stop-color:#A9CACE"/>
				<stop  offset="0.0749" style="stop-color:#B4CCD0"/>
				<stop  offset="0.2883" style="stop-color:#CDD0D5"/>
				<stop  offset="0.5093" style="stop-color:#E0D3D9"/>
				<stop  offset="0.741" style="stop-color:#EAD4DB"/>
				<stop  offset="1" style="stop-color:#EED5DC"/>
			</linearGradient>
			<path style="fill:url(#SVGID_00000041975126209795070860000007543989211424166272_);" d="M280.681,752.189h-0.315l4.155,4.158
				C283.226,754.976,281.946,753.856,280.681,752.189z"/>
		</g>
	</g>
</g>
</svg>
