<?xml version="1.0" encoding="utf-8"?>
<!-- Generator: Adobe Illustrator 21.1.0, SVG Export Plug-In . SVG Version: 6.00 Build 0)  -->
<svg version="1.1" id="Layer_1" xmlns="http://www.w3.org/2000/svg" xmlns:xlink="http://www.w3.org/1999/xlink" x="0px" y="0px"
	 viewBox="0 0 150 45" style="enable-background:new 0 0 150 45;" xml:space="preserve">
<style type="text/css">
	.st0{fill:#FFFFFF;}
	.st1{fill:#FFF250;}
	.st2{fill:#C12D27;}
</style>
<path class="st0" d="M21.2,35.5c-0.1-2-0.6-3.9-1.9-5.4c-0.3-0.4-0.8-0.7-1.3-0.9c-1-0.4-2.1-0.6-3.1-0.8c-3.8-1-7.5-2-11.3-2.9
	C2.7,25.2,1.9,25,1,24.8c0,3.6,0,7.1,0,10.7C7.7,35.5,14.4,35.5,21.2,35.5z M24.8,29.7c0-7.2,0-14.2,0-21.2c-2.2,0-4.3,0-6.4,0
	c-0.9,2.6-1.4,5.3-1.6,8c-0.2,2.8,0.3,5.5,0.6,8.3c-1.5,0-2.9,0-4.3,0c0,0.1,0,0.1-0.1,0.1c2,1.2,3.9,2.4,5.5,4.1
	c-0.3-1.4-0.6-2.7-1-4.3c0.8,0.2,1.5,0.4,2.1,0.6C21.8,26.2,23.5,27.6,24.8,29.7z M14.2,8.6C14.2,8.6,14.2,8.5,14.2,8.6
	C9.8,8.5,5.4,8.5,1,8.5c0,1.2,0,2.4,0,3.6C5.4,11,9.8,9.8,14.2,8.6z"/>
<rect x="1.1" y="8.6" class="st1" width="23.7" height="26.9"/>
<path class="st2" d="M111.4,22.9c0,0.2,0,0.3,0,0.5c0,3.8,0,7.6,0,11.5c0,0.5,0,0.5-0.5,0.5c-3.2,0-6.5,0-9.7,0c-0.2,0-0.4,0-0.6,0
	c0-8.4,0-16.8,0-25.3c0.1,0,0.3,0,0.4,0c3.4,0,6.7,0,10.1,0c0.3,0,0.4,0.1,0.6,0.3c2.7,3.9,5.5,7.8,8.3,11.8
	c0.1,0.2,0.3,0.3,0.5,0.5c0-4.2,0-8.3,0-12.5c3.7,0,7.2,0,10.9,0c0,8.4,0,16.8,0,25.2c-0.2,0-0.3,0-0.4,0c-3.3,0-6.6,0-10,0
	c-0.3,0-0.5-0.1-0.7-0.3c-2.7-3.9-5.5-7.8-8.2-11.7c-0.1-0.2-0.3-0.4-0.4-0.5C111.5,22.9,111.4,22.9,111.4,22.9z"/>
<path class="st2" d="M94.4,15.8c-1.1,0.3-2,0.5-3,0.7c-2.4,0.6-4.7,1.1-7.1,1.7c-0.1,0-0.3-0.1-0.5-0.2c-0.9-0.8-1.9-1.3-3.1-1.3
	c-2.1-0.1-3.7,0.9-4.7,2.7c-1.7,2.8-0.9,6.5,1.6,8.3c2.3,1.6,5.4,1,7-1.3c0.1-0.1,0.1-0.1,0.2-0.3c-0.2,0-0.3,0-0.5,0
	c-1.3,0-2.7,0-4,0c-0.5,0-0.5,0-0.5-0.5c0-1.6,0-3.2,0-4.8c0-0.4,0.1-0.5,0.4-0.5c1.2,0,2.4,0,3.6,0c4.1,0,8.1,0,12.2,0
	c0.4,0,0.6,0.2,0.6,0.6c0.6,4.3-1,7.8-4.2,10.6c-2.6,2.3-5.7,3.6-9.2,4.1c-4.4,0.6-8.6,0-12.5-2.2c-3-1.7-5.4-4-6.5-7.4
	c-1.4-4.1-0.5-7.8,2.2-11c2.5-3,5.8-4.6,9.6-5.5c1.8-0.4,3.6-0.5,5.5-0.4c4.6,0.4,8.8,2,12,5.4C93.9,15.2,94.1,15.5,94.4,15.8z"/>
<path class="st2" d="M63.6,34.4c-0.2,0-0.3,0-0.4,0c-3.5,0-6.9,0-10.4,0c-0.3,0-0.5-0.1-0.6-0.4c-0.1-0.5-0.3-0.9-0.4-1.3
	c-0.1-0.4-0.3-0.6-0.7-0.6c-2.1,0-4.2,0-6.4,0c-0.5,0-0.9,0-1.4,0c-0.3,0-0.4,0.1-0.5,0.3c-0.1,0.6-0.3,1.2-0.5,1.7
	c0,0.1-0.2,0.3-0.3,0.3c-3.8,0-7.7,0-11.6,0c-0.1,0-0.1,0-0.2,0c0.4-0.9,0.8-1.8,1.2-2.7c2-4.6,4.1-9.2,6.1-13.9
	c1.1-2.5,2.2-4.9,3.2-7.4c0.1-0.3,0.2-0.4,0.5-0.4c3.7,0,7.4,0,11.1,0c0.3,0,0.4,0.1,0.5,0.3c3.5,7.8,7,15.7,10.4,23.6
	C63.5,34.1,63.5,34.2,63.6,34.4z M44.8,25.8c1.7,0,3.3,0,4.9,0c-0.8-2.7-1.6-5.4-2.4-8h-0.1C46.4,20.4,45.6,23.1,44.8,25.8z"/>
<path class="st2" d="M136.8,35.4c0-8.5,0-16.8,0-25.2c3.7,0,7.4,0,11.1,0c0,0.2,0,0.4,0,0.5c0,8.1,0,16.2,0,24.2
	c0,0.4-0.1,0.5-0.5,0.5c-3.4,0-6.8,0-10.2,0C137.2,35.4,137,35.4,136.8,35.4z"/>
<path class="st2" d="M21.2,35.5c-6.8,0-13.4,0-20.1,0c0-3.5,0-7.1,0-10.7C2,25,2.8,25.2,3.6,25.4c3.8,1,7.5,2,11.3,2.9
	c1,0.3,2.1,0.5,3.1,0.8c0.5,0.2,1,0.5,1.3,0.9C20.6,31.6,21,33.5,21.2,35.5z"/>
<path class="st2" d="M24.8,29.9c-1.3-2.1-3-3.5-5.2-4.3c-0.6-0.2-1.3-0.4-2.1-0.6c0.4,1.5,0.7,2.9,1,4.3c-1.5-1.8-3.5-2.9-5.5-4.1
	c0-0.1,0-0.1,0.1-0.1c1.4,0,2.9,0,4.3,0c-0.3-2.8-0.9-5.5-0.6-8.4c0.2-2.7,0.7-5.4,1.6-8.1c2.1,0,4.2,0,6.5,0
	C24.8,15.6,24.8,22.6,24.8,29.9z"/>
<path class="st2" d="M14.3,8.6C9.9,9.8,5.5,11,1.1,12.2c0-1.3,0-2.4,0-3.6C5.5,8.5,9.9,8.5,14.3,8.6C14.3,8.5,14.3,8.6,14.3,8.6z"/>
</svg>
